<svg width="36" height="21" viewBox="0 0 36 21" fill="none" xmlns="http://www.w3.org/2000/svg">
<path d="M34.9108 0.962788C34.6526 0.852788 34.3489 0.891163 34.1341 1.05916C28.8126 5.18804 22.0209 10.4804 19.8841 12.2427C18.6847 13.2336 17.0202 13.2336 15.8181 12.2414C13.5405 10.3632 5.91363 4.42891 1.56962 1.0591C1.35335 0.891101 1.04893 0.854038 0.792853 0.962725C0.535411 1.07216 0.370361 1.30785 0.370361 1.5676V18.3332C0.370361 19.804 1.67703 20.9999 3.28396 20.9999H32.4198C34.0267 20.9999 35.3333 19.804 35.3333 18.3332V1.5676C35.3333 1.30785 35.1683 1.07154 34.9108 0.962788Z" fill="#CD06FF"/>
</svg>
